<?xml version="1.0" encoding="utf-8"?>
<!-- Generator: Adobe Illustrator 25.2.3, SVG Export Plug-In . SVG Version: 6.00 Build 0)  -->
<svg version="1.1" id="Layer_1" xmlns="http://www.w3.org/2000/svg" xmlns:xlink="http://www.w3.org/1999/xlink" x="0px" y="0px"
	 viewBox="0 0 408 264" style="enable-background:new 0 0 408 264;" xml:space="preserve">
<style type="text/css">
	.st0{fill:none;stroke:#000000;stroke-width:3.8647;}
</style>
<g>
	<g>
		<path id="c_13_" class="st0" d="M324.8,442.4c-43-50.8-97.7-74.3-164.1-70.4S39.6,352.3-3.3,301.5s-97.7-74.3-164.1-70.4"/>
	</g>
</g>
<g>
	<g>
		<path id="c_1_" class="st0" d="M359.4,407.8c-43-50.8-97.7-74.3-164.1-70.4S74.2,317.7,31.3,266.9s-97.7-74.3-164.1-70.4"/>
	</g>
</g>
<g>
	<g>
		<path id="c_2_" class="st0" d="M394,373.2c-43-50.8-97.7-74.3-164.1-70.4s-121.1-19.6-164.1-70.4S-31.8,158-98.2,161.9"/>
	</g>
</g>
<g>
	<g>
		<path id="c_3_" class="st0" d="M428.6,338.6c-43-50.8-97.7-74.3-164.1-70.4s-121.1-19.6-164.1-70.4S2.8,123.4-63.6,127.3"/>
	</g>
</g>
<g>
	<g>
		<path id="c_4_" class="st0" d="M463.2,304c-43-50.8-97.7-74.3-164.1-70.4c-66.4,3.9-121.1-19.6-164.1-70.4S37.4,88.8-29,92.7"/>
	</g>
</g>
<g>
	<g>
		<path id="c_5_" class="st0" d="M497.8,269.4c-43-50.8-97.7-74.3-164.1-70.4c-66.4,3.9-121.1-19.6-164.1-70.4S72,54.2,5.6,58.1"/>
	</g>
</g>
<g>
	<g>
		<path id="c_6_" class="st0" d="M532.5,234.8c-43-50.8-97.7-74.3-164.1-70.4c-66.4,3.9-121.1-19.6-164.1-70.4S106.7,19.6,40.2,23.5
			"/>
	</g>
</g>
<g>
	<g>
		<path id="c_7_" class="st0" d="M567.1,200.1c-43-50.8-97.7-74.3-164.1-70.4c-66.4,3.9-121.1-19.6-164.1-70.4S141.3-15,74.8-11.1"
			/>
	</g>
</g>
<g>
	<g>
		<path id="c_8_" class="st0" d="M601.7,165.5c-43-50.8-97.7-74.3-164.1-70.4C371.2,99,316.5,75.5,273.5,24.7s-97.7-74.3-164.1-70.4
			"/>
	</g>
</g>
<g>
	<g>
		<path id="c_9_" class="st0" d="M636.3,130.9c-43-50.8-97.7-74.3-164.1-70.4c-66.4,3.9-121.1-19.6-164.1-70.4
			s-97.7-74.3-164.1-70.4"/>
	</g>
</g>
<g>
	<g>
		<path id="c_10_" class="st0" d="M670.9,96.3c-43-50.8-97.7-74.3-164.1-70.4S385.7,6.3,342.7-44.5s-97.7-74.3-164.1-70.4"/>
	</g>
</g>
</svg>
